<svg xmlns="http://www.w3.org/2000/svg" xmlns:xlink="http://www.w3.org/1999/xlink" width="208.271" height="49.997" viewBox="0 0 208.271 49.997">
  <defs>
    <linearGradient id="linear-gradient" x1="-0.287" y1="0.188" x2="0.434" y2="-0.533" gradientUnits="objectBoundingBox">
      <stop offset="0" stop-color="#3d2eea"/>
      <stop offset="1" stop-color="#8032e4"/>
    </linearGradient>
  </defs>
  <g id="Group_758" data-name="Group 758" transform="translate(-85 -25.4)">
    <g id="Group_286" data-name="Group 286" transform="translate(85 25.4)">
      <g id="Group_283" data-name="Group 283">
        <path id="Path_5356" data-name="Path 5356" d="M403.821,383.07c-9.864-9.454-9.738-25.864.086-35.555a25.073,25.073,0,1,1,34.905,36C429.19,392.724,413.2,392.826,403.821,383.07Zm24.087-21.648c.209.209.425.411.626.628a4.633,4.633,0,0,1,.3,6.313c-1.61,1.993-3.5,3.488-6.3,3.129a1.633,1.633,0,0,0-.3.009,4.605,4.605,0,0,0-4.284,3.745,4.64,4.64,0,1,0,9.187.539,6.852,6.852,0,0,1,6.265-7.1,3.27,3.27,0,0,0,3.13-3.365,3.232,3.232,0,0,0-3.261-3.234,4.642,4.642,0,0,1-3.1-1.179c-1.346-1.237-2.718-2.457-3.015-4.415a15.116,15.116,0,0,1-.031-1.992,4.348,4.348,0,0,0-1.675-3.4,4.623,4.623,0,0,0-5.443-.331,4.7,4.7,0,0,0-1.906,5.389,4.508,4.508,0,0,0,4.547,3.091A6.173,6.173,0,0,1,427.908,361.421ZM414.669,362.6a6.225,6.225,0,0,0-1.406-1.219,4.485,4.485,0,0,0-5.953,1.6,4.525,4.525,0,0,0,7.464,5.1,3.9,3.9,0,0,1,2.978-1.69,5.037,5.037,0,0,1,3.668,1.019,2.346,2.346,0,0,0,3.141-.429,2.527,2.527,0,0,0-.106-3.317,2.406,2.406,0,0,0-3.167-.237C419.169,365.02,416.641,364.735,414.669,362.6Z" transform="translate(-396.481 -340.408)" fill="url(#linear-gradient)"/>
      </g>
    </g>
    <g id="Group_683" data-name="Group 683" transform="translate(150 37.9)">
      <g id="Group_281" data-name="Group 281" transform="translate(0)">
        <path id="Path_5347" data-name="Path 5347" d="M267.6,579.312h4.38V603.8H267.6Zm2.207,20.315h5.727a2.622,2.622,0,0,0,1.828-.59,2.118,2.118,0,0,0,.649-1.651V595.7a2.772,2.772,0,0,0-.286-1.314,1.914,1.914,0,0,0-.859-.826,3.016,3.016,0,0,0-1.364-.286H269.8v-4.161h5.643a2.309,2.309,0,0,0,1.693-.589,2.262,2.262,0,0,0,.6-1.684v-1.314a1.922,1.922,0,0,0-.607-1.516,2.448,2.448,0,0,0-1.685-.539H269.8v-4.161h5.947a7.832,7.832,0,0,1,3.445.69,4.86,4.86,0,0,1,2.165,2,6.3,6.3,0,0,1,.741,3.159v1.331a4.96,4.96,0,0,1-.489,2.232,4.066,4.066,0,0,1-1.432,1.609,5.762,5.762,0,0,1-2.257.842,5.689,5.689,0,0,1,2.426.851,4.381,4.381,0,0,1,1.541,1.727,5.427,5.427,0,0,1,.531,2.459v1.7a6.434,6.434,0,0,1-.741,3.192,4.816,4.816,0,0,1-2.173,2.013,7.841,7.841,0,0,1-3.436.691H269.8Z" transform="translate(-267.597 -579.059)" fill="#5f2eea"/>
        <path id="Path_5348" data-name="Path 5348" d="M329.417,603.8h-4.464V579.312h4.464Z" transform="translate(-307.274 -579.059)" fill="#5f2eea"/>
        <path id="Path_5349" data-name="Path 5349" d="M347.06,579.312h15.093v4.228H347.06Zm5.34,2.038h4.4V603.8h-4.4Z" transform="translate(-322.566 -579.059)" fill="#5f2eea"/>
        <path id="Path_5350" data-name="Path 5350" d="M401.392,602.875a6.329,6.329,0,0,1-2.586-1.828,7.115,7.115,0,0,1-1.44-3.015l4.093-1.8a4.408,4.408,0,0,0,1.457,2.223,3.793,3.793,0,0,0,2.384.758,3.552,3.552,0,0,0,2.257-.64,2.149,2.149,0,0,0,.808-1.786v-1.078a2,2,0,0,0-.471-1.365,3.237,3.237,0,0,0-1.23-.85q-.758-.312-1.988-.682a.272.272,0,0,0-.092-.042.115.115,0,0,1-.059-.025l-.219-.051a20.914,20.914,0,0,1-3.277-1.246,5.663,5.663,0,0,1-2.164-1.98,6.361,6.361,0,0,1-.893-3.58v-.674a7.066,7.066,0,0,1,.884-3.621,5.685,5.685,0,0,1,2.569-2.307,9.567,9.567,0,0,1,4.093-.792,8.26,8.26,0,0,1,3.209.581,5.719,5.719,0,0,1,2.316,1.752,8.009,8.009,0,0,1,1.4,2.906l-3.891,1.819a4.829,4.829,0,0,0-1.331-2.105,2.907,2.907,0,0,0-1.954-.725,3.443,3.443,0,0,0-2.173.6,1.978,1.978,0,0,0-.758,1.642v.826a2.125,2.125,0,0,0,.506,1.474,3.612,3.612,0,0,0,1.246.893,21.535,21.535,0,0,0,2.055.75.906.906,0,0,1,.219.059c.067.028.135.053.2.075a.746.746,0,0,1,.16.042.691.691,0,0,0,.143.042,17.049,17.049,0,0,1,3.04,1.23,5.525,5.525,0,0,1,2.021,1.945,6.336,6.336,0,0,1,.817,3.428v1.045a6.91,6.91,0,0,1-.91,3.622,5.792,5.792,0,0,1-2.644,2.308,11.209,11.209,0,0,1-7.8.177Z" transform="translate(-357.366 -578.491)" fill="#5f2eea"/>
        <path id="Path_5351" data-name="Path 5351" d="M456.744,579.312h4.379V603.8h-4.379Zm1.752,0h11.876v4.262H458.5Zm0,10.208h10.528v4.228H458.5Zm0,10.023h11.876V603.8H458.5Z" transform="translate(-398.442 -579.059)" fill="#5f2eea"/>
        <path id="Path_5352" data-name="Path 5352" d="M512.079,579.312h2.931l7.6,24.493h-4.548l-4.514-16.374L509.03,603.8h-4.548Zm-3.369,16.457h9.77v4.178h-9.77Z" transform="translate(-431.465 -579.059)" fill="#5f2eea"/>
        <path id="Path_5353" data-name="Path 5353" d="M570.09,579.257h4.346v24.51H570.09Zm1.853,10.174h6.452a2.12,2.12,0,0,0,1.095-.278,1.8,1.8,0,0,0,.716-.784,2.682,2.682,0,0,0,.244-1.179V585.81a2.94,2.94,0,0,0-.244-1.239,1.786,1.786,0,0,0-.708-.809,2.1,2.1,0,0,0-1.1-.278h-6.452v-4.228h6.5a7.378,7.378,0,0,1,3.479.775,5.365,5.365,0,0,1,2.266,2.232,7.074,7.074,0,0,1,.792,3.428v1.432a7.244,7.244,0,0,1-.792,3.478,5.441,5.441,0,0,1-2.266,2.266,7.25,7.25,0,0,1-3.479.792h-6.5Zm4.279,3.47,4.38-.775,5.239,11.64h-5.02Z" transform="translate(-476.85 -579.021)" fill="#5f2eea"/>
        <path id="Path_5354" data-name="Path 5354" d="M631.067,602.588a6.028,6.028,0,0,1-2.527-2.62,9.072,9.072,0,0,1-.876-4.161v-9.619a9.127,9.127,0,0,1,.876-4.169,6.014,6.014,0,0,1,2.527-2.628,8.187,8.187,0,0,1,3.976-.9,7.569,7.569,0,0,1,3.857.91,6.049,6.049,0,0,1,2.434,2.754,12.82,12.82,0,0,1,1.036,4.674h-4.514a7.592,7.592,0,0,0-.447-2.2,2.781,2.781,0,0,0-.943-1.289,2.412,2.412,0,0,0-1.423-.421,2.949,2.949,0,0,0-1.533.38,2.466,2.466,0,0,0-.985,1.12,4.154,4.154,0,0,0-.346,1.769v9.619a4.084,4.084,0,0,0,.346,1.769,2.479,2.479,0,0,0,.985,1.1,2.952,2.952,0,0,0,1.533.379,2.4,2.4,0,0,0,1.432-.421,2.855,2.855,0,0,0,.943-1.289,7.075,7.075,0,0,0,.438-2.2h4.514a13.038,13.038,0,0,1-1.053,4.675,6.064,6.064,0,0,1-2.426,2.754,7.524,7.524,0,0,1-3.849.91A8.189,8.189,0,0,1,631.067,602.588Z" transform="translate(-516.677 -578.491)" fill="#5f2eea"/>
        <path id="Path_5355" data-name="Path 5355" d="M684.31,579.312h4.38V603.8h-4.38Zm2.055,10.309H697.6v4.161H686.365Zm8.389-10.309h4.38V603.8h-4.38Z" transform="translate(-555.863 -579.059)" fill="#5f2eea"/>
      </g>
    </g>
  </g>
</svg>
