<?xml version="1.0" encoding="utf-8"?>
<!-- Generator: Adobe Illustrator 25.4.0, SVG Export Plug-In . SVG Version: 6.00 Build 0)  -->
<svg version="1.1" id="Capa_1" xmlns="http://www.w3.org/2000/svg" xmlns:xlink="http://www.w3.org/1999/xlink" x="0px" y="0px"
	 viewBox="0 0 310.4 310.4" style="enable-background:new 0 0 310.4 310.4;" xml:space="preserve">
<style type="text/css">
	.st0{display:none;}
	.st1{display:inline;}
</style>
<g>
	<g>
		<path d="M214.5,55C170.5,11,98.9,11,55,55c-44,44-44,115.5,0,159.5c37.3,37.3,92.8,43,136.1,17c0,0,3.1-1.9,5.7,0.7
			c14.4,14.4,57.5,57.5,57.5,57.5c11.5,11.5,27.5,14.2,37.6,4l1.7-1.7c10.2-10.2,7.4-26.2-4-37.6c0,0-43.1-43.1-57.4-57.4
			c-2.6-2.6-0.8-5.8-0.8-5.8C257.4,147.8,251.8,92.3,214.5,55z M193.6,193.6c-32.5,32.5-85.4,32.5-117.8,0
			c-32.5-32.5-32.5-85.4,0-117.8c32.5-32.5,85.4-32.5,117.8,0C226.1,108.3,226.1,161.1,193.6,193.6z"/>
		<g class="st0">
			<path class="st1" d="M118.4,183.7c0,1.7-0.3,3.4-1,5.1c-2.8,6.6-10.4,9.7-17,6.9c-41.6-17.6-61.1-65.7-43.5-107.3
				c2.8-6.6,10.4-9.7,17-6.9c6.6,2.8,9.7,10.4,6.9,17c-12,28.4,1.3,61.2,29.7,73.2C115.4,173.8,118.4,178.6,118.4,183.7z"/>
		</g>
	</g>
</g>
</svg>
